<svg id="MO" xmlns="http://www.w3.org/2000/svg" viewBox="0 0 309.88 198"><defs><style>.cls-1{fill:#ff78f4;}</style></defs><title>mo</title><path class="cls-1" d="M362.68,151a42.26,42.26,0,0,0-42.26,42.26V306.73a14.09,14.09,0,1,1-28.17,0V193.26a42.26,42.26,0,1,0-84.51,0V306.73a14.09,14.09,0,1,1-28.17,0V193.26a42.26,42.26,0,1,0-84.51,0v85.3a14.09,14.09,0,1,0,28.17,0v-85.3a14.09,14.09,0,1,1,28.17,0V306.74a42.26,42.26,0,1,0,84.51,0V193.27a14.09,14.09,0,1,1,28.17,0V306.74a42.26,42.26,0,1,0,84.51,0V193.27a14.09,14.09,0,1,1,28.17,0v85.3a14.09,14.09,0,1,0,28.17,0v-85.3A42.26,42.26,0,0,0,362.68,151Z" transform="translate(-95.06 -151)"/></svg>